<?xml version="1.0" standalone="no"?>
<!DOCTYPE svg PUBLIC "-//W3C//DTD SVG 20010904//EN"
 "http://www.w3.org/TR/2001/REC-SVG-20010904/DTD/svg10.dtd">
<svg version="1.0" xmlns="http://www.w3.org/2000/svg"
 width="84.000000pt" height="82.000000pt" viewBox="0 0 84.000000 82.000000"
 preserveAspectRatio="xMidYMid meet">
<metadata>
Created by potrace 1.16, written by Peter Selinger 2001-2019
</metadata>
<g transform="translate(0.000000,82.000000) scale(0.100000,-0.100000)"
fill="#000000" stroke="none">
<path d="M316 569 c-21 -17 -26 -29 -26 -65 0 -62 35 -98 90 -92 34 3 37 1 29
-14 -12 -22 -23 -22 -53 -3 -17 12 -43 15 -92 13 -65 -3 -69 -4 -72 -28 -7
-69 -15 -93 -41 -123 -30 -34 -56 -109 -47 -133 5 -12 26 -14 103 -12 l98 3 1
77 c2 74 3 78 35 106 19 16 48 33 64 39 25 8 34 20 50 66 11 31 23 57 27 57
41 0 157 -142 144 -176 -3 -9 0 -28 8 -42 8 -15 24 -48 35 -75 20 -48 44 -68
62 -50 7 7 -1 34 -25 82 l-36 71 36 72 36 72 -33 29 c-49 42 -124 75 -188 83
-42 5 -62 14 -84 35 -35 35 -82 38 -121 8z"/>
</g>
</svg>
