<?xml version="1.0" standalone="no"?>
<!DOCTYPE svg PUBLIC "-//W3C//DTD SVG 20010904//EN"
 "http://www.w3.org/TR/2001/REC-SVG-20010904/DTD/svg10.dtd">
<svg version="1.0" xmlns="http://www.w3.org/2000/svg"
 width="512.000000pt" height="512.000000pt" viewBox="0 0 512.000000 512.000000"
 preserveAspectRatio="xMidYMid meet">

<g transform="translate(0.000000,512.000000) scale(0.100000,-0.100000)"
fill="#000000" stroke="none">
<path d="M322 4219 l3 -511 302 -137 302 -136 104 -125 c60 -73 130 -146 168
-174 127 -96 273 -152 424 -162 125 -9 203 12 393 106 107 52 175 80 197 80
19 0 181 -18 361 -40 356 -44 364 -44 426 8 58 49 73 124 39 198 -36 80 -27
76 -576 194 -359 77 -375 83 -375 145 0 41 36 75 77 75 18 0 64 -7 104 -15 40
-9 74 -14 76 -11 2 2 -7 32 -21 67 -39 95 -33 138 24 158 38 13 73 1 93 -31 8
-13 32 -68 53 -123 21 -55 42 -105 46 -111 5 -6 26 -14 47 -18 22 -3 46 -8 53
-11 11 -4 18 9 27 50 14 62 38 85 87 85 59 0 87 -60 65 -137 -11 -37 -24 -30
129 -66 36 -8 72 -18 81 -22 24 -9 44 105 29 170 -17 76 -37 105 -215 310
-173 200 -214 236 -290 253 -25 5 -288 4 -675 -4 l-635 -14 -463 230 -462 230
2 -511z"/>
<path d="M3451 3029 c-22 -7 -76 -52 -156 -130 -155 -152 -157 -152 -265 -44
-63 63 -79 75 -99 70 -13 -3 -94 2 -179 11 -149 17 -155 17 -168 0 -21 -30
-28 -102 -14 -154 12 -42 40 -75 291 -327 l279 -280 265 265 c146 146 276 281
288 300 32 51 31 150 -2 203 -47 76 -150 113 -240 86z"/>
<path d="M2175 2977 c-72 -41 -83 -112 -23 -162 35 -29 45 -30 158 -10 47 8
85 15 86 15 1 0 4 24 8 53 3 28 9 64 12 78 6 26 6 26 -83 38 -115 14 -111 15
-158 -12z"/>
<path d="M1901 2850 c-48 -18 -39 -30 25 -30 27 0 34 4 34 19 0 28 -9 30 -59
11z"/>
<path d="M3775 1904 c-92 -19 -235 -90 -310 -154 -33 -29 -70 -56 -83 -61 -13
-5 -214 -9 -446 -9 -422 0 -423 0 -456 -22 -50 -34 -72 -71 -77 -125 -5 -59
25 -117 77 -147 34 -20 54 -21 478 -26 l444 -5 19 -24 c26 -31 24 -64 -5 -98
l-24 -28 -454 0 c-444 0 -454 0 -500 22 -57 26 -141 103 -158 143 -11 28 -31
35 -404 159 -215 71 -401 131 -414 134 -33 8 -87 -10 -123 -40 -61 -52 -76
-137 -36 -208 20 -35 108 -94 757 -508 404 -257 759 -476 789 -488 89 -33 148
-41 260 -36 98 4 154 17 734 171 l628 166 165 0 164 0 0 479 0 480 -174 3
-173 3 -44 38 c-62 53 -165 120 -224 144 -119 50 -277 64 -410 37z"/>
</g>
</svg>
