<?xml version="1.0" standalone="no"?>
<!DOCTYPE svg PUBLIC "-//W3C//DTD SVG 20010904//EN"
 "http://www.w3.org/TR/2001/REC-SVG-20010904/DTD/svg10.dtd">
<svg version="1.0" xmlns="http://www.w3.org/2000/svg"
 width="916.000000pt" height="802.000000pt" viewBox="0 0 916.000000 802.000000"
 preserveAspectRatio="xMidYMid meet">
<metadata>
Created by potrace 1.16, written by Peter Selinger 2001-2019
</metadata>
<g transform="translate(0.000000,802.000000) scale(0.100000,-0.100000)"
fill="#000000" stroke="none">
<path d="M3830 6404 c-80 -21 -206 -85 -272 -138 -127 -102 -245 -290 -289
-461 -25 -100 -35 -275 -20 -379 28 -200 110 -365 251 -506 105 -105 178 -151
310 -191 95 -30 261 -32 359 -5 257 70 459 281 548 573 24 80 26 103 27 258 1
146 -2 181 -21 252 -85 307 -294 528 -568 598 -75 19 -251 19 -325 -1z"/>
<path d="M5465 6010 c-239 -48 -468 -252 -565 -503 -47 -121 -63 -223 -57
-361 7 -141 23 -211 78 -321 93 -189 254 -314 451 -352 526 -99 994 474 849
1040 -32 123 -93 229 -186 323 -89 90 -177 141 -295 168 -69 17 -208 19 -275
6z"/>
<path d="M2520 5430 c-246 -37 -436 -219 -501 -480 -28 -112 -23 -308 11 -415
85 -266 285 -467 529 -530 81 -21 226 -21 305 0 388 102 566 573 376 992 -131
288 -441 474 -720 433z"/>
<path d="M6352 4690 c-89 -24 -142 -47 -218 -95 -166 -107 -304 -299 -351
-492 -22 -94 -22 -268 1 -352 31 -113 75 -190 156 -272 92 -94 187 -143 318
-166 361 -64 743 204 842 591 22 88 27 257 10 336 -27 120 -91 234 -178 318
-63 60 -184 123 -270 141 -82 17 -227 13 -310 -9z"/>
<path d="M4270 4599 c-380 -31 -726 -235 -940 -554 -162 -243 -586 -915 -615
-976 -181 -386 -20 -852 361 -1043 119 -59 210 -80 354 -81 143 0 182 8 360
76 223 85 369 112 590 112 214 -1 359 -29 583 -114 152 -58 198 -69 312 -75
178 -11 359 43 509 150 299 213 408 634 253 969 -35 75 -598 960 -672 1057
-61 80 -200 209 -286 267 -239 161 -522 235 -809 212z"/>
</g>
</svg>
