<?xml version="1.0" standalone="no"?>
<!DOCTYPE svg PUBLIC "-//W3C//DTD SVG 20010904//EN"
 "http://www.w3.org/TR/2001/REC-SVG-20010904/DTD/svg10.dtd">
<svg version="1.0" xmlns="http://www.w3.org/2000/svg"
 width="61.000000pt" height="82.000000pt" viewBox="0 0 61.000000 82.000000"
 preserveAspectRatio="xMidYMid meet">
<metadata>
Created by potrace 1.16, written by Peter Selinger 2001-2019
</metadata>
<g transform="translate(0.000000,82.000000) scale(0.100000,-0.100000)"
fill="#000000" stroke="none">
<path d="M53 564 c-7 -19 13 -34 48 -34 35 0 45 -14 59 -85 6 -33 15 -77 20
-99 8 -36 6 -41 -26 -71 -43 -41 -45 -76 -5 -116 16 -16 36 -29 45 -29 8 0 26
-11 40 -25 16 -16 36 -25 56 -25 20 0 40 9 56 25 15 15 36 25 53 25 16 0 37
-10 51 -25 48 -51 130 -16 130 54 0 44 -21 68 -68 77 -26 5 -36 1 -62 -25 -37
-36 -85 -43 -95 -12 -14 46 -107 49 -127 5 -13 -28 -18 -29 -44 -10 -27 21 -7
50 37 54 80 6 334 34 337 37 8 8 42 200 38 211 -4 11 -45 14 -196 14 l-191 0
-30 35 c-27 30 -37 35 -75 35 -32 0 -46 -5 -51 -16z m487 -112 c0 -41 -25
-122 -39 -126 -9 -2 -63 -7 -121 -11 -58 -3 -112 -8 -121 -11 -13 -3 -19 8
-28 53 -6 32 -14 68 -17 81 l-6 22 166 0 c91 0 166 -4 166 -8z"/>
</g>
</svg>
