<?xml version="1.0" standalone="no"?>
<!DOCTYPE svg PUBLIC "-//W3C//DTD SVG 20010904//EN"
 "http://www.w3.org/TR/2001/REC-SVG-20010904/DTD/svg10.dtd">
<svg version="1.0" xmlns="http://www.w3.org/2000/svg"
 width="50.000000pt" height="50.000000pt" viewBox="0 0 50.000000 50.000000"
 preserveAspectRatio="xMidYMid meet">
<metadata>
Created by potrace 1.16, written by Peter Selinger 2001-2019
</metadata>
<g transform="translate(0.000000,50.000000) scale(0.100000,-0.100000)"
fill="#000000" stroke="none">
<path d="M168 477 c-35 -29 -48 -58 -48 -104 0 -36 20 -78 44 -95 8 -5 8 -8 0
-8 -6 0 -32 -14 -58 -31 -64 -43 -106 -116 -106 -186 l0 -53 250 0 250 0 0 53
c0 70 -42 143 -106 186 -26 17 -52 31 -58 31 -8 0 -8 3 0 8 62 43 57 162 -10
206 -39 25 -124 21 -158 -7z m150 -43 c29 -34 29 -85 -1 -120 -19 -21 -32 -27
-67 -27 -53 0 -90 35 -90 86 0 87 101 126 158 61z m54 -230 c45 -31 81 -87 93
-142 l7 -32 -222 0 -222 0 7 32 c17 76 67 139 135 167 14 6 55 10 92 8 56 -2
74 -8 110 -33z"/>
</g>
</svg>
